<svg xmlns="http://www.w3.org/2000/svg" version="1.1" xmlns:xlink="http://www.w3.org/1999/xlink" xmlns:svgjs="http://svgjs.dev/svgjs" width="1000" height="1000" viewBox="0 0 1000 1000"><rect width="1000" height="1000" fill="#ffffff"></rect><g transform="matrix(0.7,0,0,0.7,149.57576526963578,350.21834586881107)"><svg viewBox="0 0 396 170" data-background-color="#ffffff" preserveAspectRatio="xMidYMid meet" height="429" width="1000" xmlns="http://www.w3.org/2000/svg" xmlns:xlink="http://www.w3.org/1999/xlink"><defs></defs><g id="tight-bounds" transform="matrix(1,0,0,1,0.23999564746318924,-0.2085208048547429)"><svg viewBox="0 0 395.5199999999999 170.41704160970949" height="170.41704160970949" width="395.5199999999999"><g><svg viewBox="0 0 395.5199999999999 170.41704160970949" height="170.41704160970949" width="395.5199999999999"><g transform="matrix(1,0,0,1,0,124.65424400116143)"><svg viewBox="0 0 395.5199999999999 45.76279760854807" height="45.76279760854807" width="395.5199999999999"><g><svg viewBox="0 0 395.5199999999999 45.76279760854807" height="45.76279760854807" width="395.5199999999999"><g><svg viewBox="0 0 395.5199999999999 24.682266319475616" height="24.682266319475616" width="395.5199999999999"><g transform="matrix(1,0,0,1,0,0)"><svg width="395.5199999999999" viewBox="1.5499999523162842 -34.349998474121094 556.7999877929688 34.75" height="24.682266319475616" data-palette-color="#77d4fc"><path d="M30.65-33.7L19 0 12.9 0 1.55-33.7 7.05-33.7 11.35-20.3Q12.75-16 13.9-12.08 15.05-8.15 15.5-6.4L15.5-6.4 16-4.6Q17.6-10.6 20.8-20.3L20.8-20.3 25.15-33.7 30.65-33.7ZM55.25-4.3L55.25 0 35.8 0 35.8-33.7 55-33.7 55-29.4 40.95-29.4 40.95-19 53.4-19 53.4-14.7 40.95-14.7 40.95-4.3 55.25-4.3ZM71.05-29.4L71.05-29.4 66.65-29.4 66.65-17.1 71.3-17.1Q74.5-17.1 76.15-18.78 77.8-20.45 77.8-23.25L77.8-23.25Q77.8-29.4 71.05-29.4ZM66.65-12.8L66.65 0 61.5 0 61.5-33.7 70.9-33.7Q76.7-33.7 79.84-30.88 83-28.05 83-23.2L83-23.2Q82.95-19.65 81.2-17.18 79.45-14.7 76.34-13.6L76.34-13.6 85.15 0 79 0 71.09-12.8 66.65-12.8ZM103.94-12.55L103.94 0 98.79 0 98.79-12.55 87.39-33.7 93.29-33.7 95.69-28.75Q97.99-24.1 99.39-21.1 100.79-18.1 101.04-17.4L101.04-17.4 101.34-16.75Q101.79-18.25 107.14-28.75L107.14-28.75 109.59-33.7 115.49-33.7 103.94-12.55ZM159.64-3.1L159.69-2.75Q155.34 0.4 148.79 0.4L148.79 0.4Q140.89 0.4 136.06-4.25 131.24-8.9 131.24-16.9L131.24-16.9Q131.24-24.65 136.11-29.48 140.99-34.3 148.49-34.3L148.49-34.3Q154.34-34.3 158.29-32.05L158.29-32.05 158.29-26.75Q153.99-29.45 148.69-29.45L148.69-29.45Q143.29-29.45 139.96-26 136.64-22.55 136.64-16.9L136.64-16.9Q136.64-11.1 139.91-7.75 143.19-4.4 148.94-4.4L148.94-4.4Q151.94-4.4 154.64-5.5L154.64-5.5 154.64-14.8 147.79-14.8 147.79-19.25 159.69-19.25 159.69-3.1 159.64-3.1ZM192.09-29.63Q196.24-24.9 196.24-17 196.24-9.1 192.06-4.35 187.89 0.4 180.79 0.4L180.79 0.4Q173.74 0.4 169.51-4.35 165.29-9.1 165.29-17L165.29-17Q165.29-24.85 169.49-29.6 173.69-34.35 180.74-34.35L180.74-34.35Q187.94-34.35 192.09-29.63ZM173.36-26.18Q170.69-22.8 170.69-17 170.69-11.2 173.44-7.8 176.19-4.4 180.79-4.4L180.79-4.4Q185.54-4.4 188.19-7.75 190.84-11.1 190.84-17L190.84-17Q190.84-22.85 188.16-26.2 185.49-29.55 180.74-29.55L180.74-29.55Q176.04-29.55 173.36-26.18ZM227.63-29.63Q231.78-24.9 231.78-17 231.78-9.1 227.61-4.35 223.43 0.4 216.33 0.4L216.33 0.4Q209.28 0.4 205.06-4.35 200.83-9.1 200.83-17L200.83-17Q200.83-24.85 205.03-29.6 209.23-34.35 216.28-34.35L216.28-34.35Q223.48-34.35 227.63-29.63ZM208.91-26.18Q206.23-22.8 206.23-17 206.23-11.2 208.98-7.8 211.73-4.4 216.33-4.4L216.33-4.4Q221.08-4.4 223.73-7.75 226.38-11.1 226.38-17L226.38-17Q226.38-22.85 223.71-26.2 221.03-29.55 216.28-29.55L216.28-29.55Q211.58-29.55 208.91-26.18ZM248.33 0L248.33 0 237.73 0 237.73-33.7 248.23-33.7Q255.73-33.7 260.53-29.05 265.33-24.4 265.33-17.2L265.33-17.2Q265.33-9.7 260.81-4.85 256.28 0 248.33 0ZM248.13-29.3L248.13-29.3 242.98-29.3 242.98-4.35 248.28-4.35Q254.03-4.35 257.03-7.95 260.03-11.55 260.03-17.2L260.03-17.2Q260.03-22.4 256.78-25.85 253.53-29.3 248.13-29.3ZM292.93-29.4L292.93-29.4 288.53-29.4 288.53-17.1 293.18-17.1Q296.38-17.1 298.03-18.78 299.68-20.45 299.68-23.25L299.68-23.25Q299.68-29.4 292.93-29.4ZM288.53-12.8L288.53 0 283.38 0 283.38-33.7 292.78-33.7Q298.58-33.7 301.73-30.88 304.88-28.05 304.88-23.2L304.88-23.2Q304.83-19.65 303.08-17.18 301.33-14.7 298.23-13.6L298.23-13.6 307.03 0 300.88 0 292.98-12.8 288.53-12.8ZM319.77-14.25L319.77-14.25 319.22-12.55 330.02-12.55 329.47-14.25Q327.57-20.15 326.37-24.03 325.17-27.9 324.92-28.85L324.92-28.85 324.67-29.8Q324.12-27.45 319.77-14.25ZM317.82-8.25L315.12 0 309.67 0 321.32-33.7 328.07-33.7 339.57 0 334.07 0 331.42-8.25 317.82-8.25ZM362.17-18.35L362.17-14.05 349.92-14.05 349.92 0 344.77 0 344.77-33.7 363.87-33.7 363.87-29.4 349.92-29.4 349.92-18.35 362.17-18.35ZM389.72-33.7L389.72-29.4 380.87-29.4 380.87 0 375.72 0 375.72-29.4 366.92-29.4 366.92-33.7 389.72-33.7ZM399.97-33.7L399.97 0 394.87 0 394.87-33.7 399.97-33.7ZM412.81-14.1L412.81 0 407.66 0 407.66-33.7 413.76-33.7 422.06-19.6Q424.36-15.65 426.24-12.3 428.11-8.95 428.81-7.6L428.81-7.6 429.51-6.2Q429.21-10.75 429.21-19.55L429.21-19.55 429.21-33.7 434.36-33.7 434.36 0 428.26 0 419.91-14.05Q417.66-17.85 415.79-21.23 413.91-24.6 413.16-26.1L413.16-26.1 412.41-27.55Q412.81-22.55 412.81-14.1L412.81-14.1ZM468.71-3.1L468.76-2.75Q464.41 0.4 457.86 0.4L457.86 0.4Q449.96 0.4 445.14-4.25 440.31-8.9 440.31-16.9L440.31-16.9Q440.31-24.65 445.19-29.48 450.06-34.3 457.56-34.3L457.56-34.3Q463.41-34.3 467.36-32.05L467.36-32.05 467.36-26.75Q463.06-29.45 457.76-29.45L457.76-29.45Q452.36-29.45 449.04-26 445.71-22.55 445.71-16.9L445.71-16.9Q445.71-11.1 448.99-7.75 452.26-4.4 458.01-4.4L458.01-4.4Q461.01-4.4 463.71-5.5L463.71-5.5 463.71-14.8 456.86-14.8 456.86-19.25 468.76-19.25 468.76-3.1 468.71-3.1ZM512.41-6.85L512.41-1.65Q509.31 0.4 503.81 0.4L503.81 0.4Q496.26 0.4 491.46-4.3 486.66-9 486.66-16.9L486.66-16.9Q486.66-24.55 491.48-29.35 496.31-34.15 503.71-34.15L503.71-34.15Q509.11-34.15 512.36-32.3L512.36-32.3 512.36-27.25Q510.16-28.45 508.38-28.93 506.61-29.4 503.86-29.4L503.86-29.4Q498.81-29.4 495.43-25.98 492.06-22.55 492.06-16.9L492.06-16.9Q492.06-11.15 495.41-7.75 498.76-4.35 504.26-4.35L504.26-4.35Q509.11-4.35 512.41-6.85L512.41-6.85ZM543.7-29.63Q547.85-24.9 547.85-17 547.85-9.1 543.68-4.35 539.5 0.4 532.4 0.4L532.4 0.4Q525.35 0.4 521.13-4.35 516.9-9.1 516.9-17L516.9-17Q516.9-24.85 521.1-29.6 525.3-34.35 532.35-34.35L532.35-34.35Q539.55-34.35 543.7-29.63ZM524.98-26.18Q522.3-22.8 522.3-17 522.3-11.2 525.05-7.8 527.8-4.4 532.4-4.4L532.4-4.4Q537.15-4.4 539.8-7.75 542.45-11.1 542.45-17L542.45-17Q542.45-22.85 539.78-26.2 537.1-29.55 532.35-29.55L532.35-29.55Q527.65-29.55 524.98-26.18ZM557.37-5.38Q558.35-4.4 558.35-3 558.35-1.6 557.37-0.6 556.4 0.4 555 0.4L555 0.4Q553.55 0.4 552.57-0.6 551.6-1.6 551.6-3 551.6-4.4 552.57-5.38 553.55-6.35 555-6.35L555-6.35Q556.4-6.35 557.37-5.38Z" opacity="1" transform="matrix(1,0,0,1,0,0)" fill="#77d4fc" class="undefined-text-0" data-fill-palette-color="primary" id="text-0"></path></svg></g></svg></g><g transform="matrix(1,0,0,1,85.30225585105201,30.50915702311214)"><svg viewBox="0 0 224.9154882978959 15.25364058543593" height="15.25364058543593" width="224.9154882978959"><g transform="matrix(1,0,0,1,0,0)"><svg width="224.9154882978959" viewBox="0.8500000238418579 -37.599998474121094 705.4700317382812 47.849998474121094" height="15.25364058543593" data-palette-color="#0718c4"><path d="M24.95 0L21.95 0 19.25-9.4 6.4-9.4 3.7 0 0.85 0 11.1-34.25 14.7-34.25 24.95 0ZM12.85-31.85L7.1-11.85 18.55-11.85 12.85-31.85ZM56.05-26.15L58.95-26.15 50.85 0 47.45 0 39.05-26.15 42.05-26.15 49.15-2.45 56.05-26.15ZM81.29-14.05Q81.29-12.95 81.19-11.95L81.19-11.95 65.44-11.95Q65.64-6.7 67.59-4.28 69.54-1.85 72.74-1.85L72.74-1.85Q74.59-1.85 76.02-2.45 77.44-3.05 78.99-4.35L78.99-4.35 80.39-2.6Q78.64-1.05 76.77-0.25 74.89 0.55 72.64 0.55L72.64 0.55Q67.94 0.55 65.24-2.95 62.54-6.45 62.54-12.85L62.54-12.85Q62.54-19.35 65.12-23.03 67.69-26.7 72.14-26.7L72.14-26.7Q76.59-26.7 78.94-23.4 81.29-20.1 81.29-14.05L81.29-14.05ZM78.54-14.15L78.54-14.95Q78.54-19.5 76.94-21.93 75.34-24.35 72.14-24.35L72.14-24.35Q69.24-24.35 67.44-21.9 65.64-19.45 65.44-14.15L65.44-14.15 78.54-14.15ZM97.94-26.7Q99.04-26.7 100.24-26.4L100.24-26.4 99.69-23.75Q98.79-24.05 97.69-24.05L97.69-24.05Q95.29-24.05 93.82-22.13 92.34-20.2 91.39-16.15L91.39-16.15 91.39 0 88.59 0 88.59-26.15 90.99-26.15 91.19-20.55Q92.19-23.65 93.84-25.18 95.49-26.7 97.94-26.7L97.94-26.7ZM121.39-26.15L113.29 0.1Q111.94 4.6 109.84 6.93 107.74 9.25 103.59 10.2L103.59 10.2 103.24 8Q105.59 7.35 106.94 6.4 108.29 5.45 109.09 4 109.89 2.55 110.74 0L110.74 0 109.74 0 101.59-26.15 104.49-26.15 111.59-2.1 118.49-26.15 121.39-26.15ZM156.13-28.3L156.98-25.65Q155.83-25.25 154.31-25.1 152.78-24.95 150.48-24.9L150.48-24.9Q154.53-22.8 154.53-17.75L154.53-17.75Q154.53-13.8 152.23-11.48 149.93-9.15 145.93-9.15L145.93-9.15Q144.28-9.15 142.88-9.7L142.88-9.7Q141.08-8.45 141.08-6.65L141.08-6.65Q141.08-3.85 144.98-3.85L144.98-3.85 148.38-3.85Q152.03-3.85 154.13-2.02 156.23-0.2 156.23 2.75L156.23 2.75Q156.23 6.25 153.63 8.25 151.03 10.25 145.93 10.25L145.93 10.25Q140.68 10.25 138.38 8.43 136.08 6.6 136.08 2.75L136.08 2.75 138.63 2.75Q138.68 5.55 140.28 6.73 141.88 7.9 145.98 7.9L145.98 7.9Q153.43 7.9 153.43 2.9L153.43 2.9Q153.43 0.8 152.01-0.35 150.58-1.5 147.88-1.5L147.88-1.5 144.78-1.5Q141.68-1.5 140.08-2.75 138.48-4 138.48-6.05L138.48-6.05Q138.48-8.6 141.13-10.45L141.13-10.45Q139.08-11.6 138.11-13.43 137.13-15.25 137.13-17.85L137.13-17.85Q137.13-21.85 139.53-24.28 141.93-26.7 145.88-26.7L145.88-26.7Q150.13-26.65 152.11-27.03 154.08-27.4 156.13-28.3L156.13-28.3ZM145.88-24.5Q142.93-24.5 141.43-22.75 139.93-21 139.93-17.85L139.93-17.85Q139.93-14.75 141.53-12.98 143.13-11.2 145.83-11.2L145.83-11.2Q148.68-11.2 150.18-12.88 151.68-14.55 151.68-17.8L151.68-17.8Q151.68-20.95 150.21-22.73 148.73-24.5 145.88-24.5L145.88-24.5ZM170.28-26.7Q175.03-26.7 177.68-23.2 180.33-19.7 180.33-13.15L180.33-13.15Q180.33-6.7 177.63-3.08 174.93 0.55 170.23 0.55L170.23 0.55Q165.53 0.55 162.88-3.03 160.23-6.6 160.23-13.05L160.23-13.05Q160.23-19.5 162.91-23.1 165.58-26.7 170.28-26.7L170.28-26.7ZM170.28-24.3Q166.88-24.3 165.03-21.53 163.18-18.75 163.18-13.05L163.18-13.05Q163.18-7.4 165.01-4.6 166.83-1.8 170.23-1.8L170.23-1.8Q173.63-1.8 175.48-4.6 177.33-7.4 177.33-13.15L177.33-13.15Q177.33-18.8 175.53-21.55 173.73-24.3 170.28-24.3L170.28-24.3ZM196.08-26.7Q200.83-26.7 203.48-23.2 206.13-19.7 206.13-13.15L206.13-13.15Q206.13-6.7 203.43-3.08 200.73 0.55 196.03 0.55L196.03 0.55Q191.33 0.55 188.68-3.03 186.03-6.6 186.03-13.05L186.03-13.05Q186.03-19.5 188.7-23.1 191.38-26.7 196.08-26.7L196.08-26.7ZM196.08-24.3Q192.68-24.3 190.83-21.53 188.98-18.75 188.98-13.05L188.98-13.05Q188.98-7.4 190.8-4.6 192.63-1.8 196.03-1.8L196.03-1.8Q199.43-1.8 201.28-4.6 203.13-7.4 203.13-13.15L203.13-13.15Q203.13-18.8 201.33-21.55 199.53-24.3 196.08-24.3L196.08-24.3ZM227.78-37.15L230.58-36.8 230.58 0 228.13 0 227.88-3.9Q226.73-1.85 225-0.65 223.28 0.55 220.88 0.55L220.88 0.55Q216.68 0.55 214.3-3.03 211.93-6.6 211.93-12.95L211.93-12.95Q211.93-17.05 213.08-20.18 214.23-23.3 216.33-25 218.43-26.7 221.23-26.7L221.23-26.7Q225.23-26.7 227.78-23.2L227.78-23.2 227.78-37.15ZM221.28-1.8Q223.43-1.8 224.98-3 226.53-4.2 227.78-6.6L227.78-6.6 227.78-20.35Q225.28-24.35 221.68-24.35L221.68-24.35Q218.53-24.35 216.7-21.43 214.88-18.5 214.93-13L214.93-13Q214.93-7.45 216.6-4.63 218.28-1.8 221.28-1.8L221.28-1.8ZM269.32-14.05Q269.32-12.95 269.22-11.95L269.22-11.95 253.47-11.95Q253.67-6.7 255.62-4.28 257.57-1.85 260.77-1.85L260.77-1.85Q262.62-1.85 264.05-2.45 265.47-3.05 267.02-4.35L267.02-4.35 268.42-2.6Q266.67-1.05 264.8-0.25 262.92 0.55 260.67 0.55L260.67 0.55Q255.97 0.55 253.27-2.95 250.57-6.45 250.57-12.85L250.57-12.85Q250.57-19.35 253.15-23.03 255.72-26.7 260.17-26.7L260.17-26.7Q264.62-26.7 266.97-23.4 269.32-20.1 269.32-14.05L269.32-14.05ZM266.57-14.15L266.57-14.95Q266.57-19.5 264.97-21.93 263.37-24.35 260.17-24.35L260.17-24.35Q257.27-24.35 255.47-21.9 253.67-19.45 253.47-14.15L253.47-14.15 266.57-14.15ZM291.27-26.15L284.02-14 292.32 0 289.12 0 282.32-12.25 275.52 0 272.47 0 280.72-13.9 273.47-26.15 276.62-26.15 282.37-15.6 288.22-26.15 291.27-26.15ZM307.47-26.7Q311.67-26.7 313.84-23.25 316.02-19.8 316.02-13.2L316.02-13.2Q316.02-6.7 313.67-3.08 311.32 0.55 307.02 0.55L307.02 0.55Q304.92 0.55 303.22-0.43 301.52-1.4 300.37-3L300.37-3 300.37 9.85 297.57 10.25 297.57-26.15 300.02-26.15 300.22-22.4Q303.12-26.7 307.47-26.7L307.47-26.7ZM306.57-1.85Q313.02-1.85 313.02-13.2L313.02-13.2Q313.02-18.9 311.49-21.63 309.97-24.35 306.97-24.35L306.97-24.35Q304.92-24.35 303.32-23.15 301.72-21.95 300.37-19.9L300.37-19.9 300.37-5.75Q302.87-1.85 306.57-1.85L306.57-1.85ZM340.56-14.05Q340.56-12.95 340.46-11.95L340.46-11.95 324.71-11.95Q324.91-6.7 326.86-4.28 328.81-1.85 332.01-1.85L332.01-1.85Q333.86-1.85 335.29-2.45 336.71-3.05 338.26-4.35L338.26-4.35 339.66-2.6Q337.91-1.05 336.04-0.25 334.16 0.55 331.91 0.55L331.91 0.55Q327.21 0.55 324.51-2.95 321.81-6.45 321.81-12.85L321.81-12.85Q321.81-19.35 324.39-23.03 326.96-26.7 331.41-26.7L331.41-26.7Q335.86-26.7 338.21-23.4 340.56-20.1 340.56-14.05L340.56-14.05ZM337.81-14.15L337.81-14.95Q337.81-19.5 336.21-21.93 334.61-24.35 331.41-24.35L331.41-24.35Q328.51-24.35 326.71-21.9 324.91-19.45 324.71-14.15L324.71-14.15 337.81-14.15ZM357.21-26.7Q358.31-26.7 359.51-26.4L359.51-26.4 358.96-23.75Q358.06-24.05 356.96-24.05L356.96-24.05Q354.56-24.05 353.09-22.13 351.61-20.2 350.66-16.15L350.66-16.15 350.66 0 347.86 0 347.86-26.15 350.26-26.15 350.46-20.55Q351.46-23.65 353.11-25.18 354.76-26.7 357.21-26.7L357.21-26.7ZM364.76-26.15L367.56-26.15 367.56 0 364.76 0 364.76-26.15ZM366.16-37.6Q367.06-37.6 367.63-37 368.21-36.4 368.21-35.55L368.21-35.55Q368.21-34.65 367.63-34.08 367.06-33.5 366.16-33.5L366.16-33.5Q365.26-33.5 364.68-34.08 364.11-34.65 364.11-35.55L364.11-35.55Q364.11-36.4 364.68-37 365.26-37.6 366.16-37.6L366.16-37.6ZM393.86-14.05Q393.86-12.95 393.76-11.95L393.76-11.95 378.01-11.95Q378.21-6.7 380.16-4.28 382.11-1.85 385.31-1.85L385.31-1.85Q387.16-1.85 388.58-2.45 390.01-3.05 391.56-4.35L391.56-4.35 392.96-2.6Q391.21-1.05 389.33-0.25 387.46 0.55 385.21 0.55L385.21 0.55Q380.51 0.55 377.81-2.95 375.11-6.45 375.11-12.85L375.11-12.85Q375.11-19.35 377.68-23.03 380.26-26.7 384.71-26.7L384.71-26.7Q389.16-26.7 391.51-23.4 393.86-20.1 393.86-14.05L393.86-14.05ZM391.11-14.15L391.11-14.95Q391.11-19.5 389.51-21.93 387.91-24.35 384.71-24.35L384.71-24.35Q381.81-24.35 380.01-21.9 378.21-19.45 378.01-14.15L378.01-14.15 391.11-14.15ZM411.7-26.7Q414.85-26.7 416.58-24.65 418.3-22.6 418.3-18.95L418.3-18.95 418.3 0 415.5 0 415.5-18.55Q415.5-21.55 414.43-22.98 413.35-24.4 411.2-24.4L411.2-24.4Q409.05-24.4 407.3-22.95 405.55-21.5 403.95-18.85L403.95-18.85 403.95 0 401.15 0 401.15-26.15 403.55-26.15 403.85-21.6Q406.95-26.7 411.7-26.7L411.7-26.7ZM435.7-26.7Q437.65-26.7 439.25-26.08 440.85-25.45 442.35-24.05L442.35-24.05 440.95-22.25Q439.8-23.3 438.55-23.8 437.3-24.3 435.75-24.3L435.75-24.3Q432.45-24.3 430.53-21.48 428.6-18.65 428.6-12.95L428.6-12.95Q428.6-7.3 430.5-4.6 432.4-1.9 435.75-1.9L435.75-1.9Q437.3-1.9 438.55-2.43 439.8-2.95 441.1-4L441.1-4 442.5-2.25Q439.55 0.55 435.7 0.55L435.7 0.55Q431 0.55 428.3-2.93 425.6-6.4 425.6-12.9L425.6-12.9Q425.6-19.4 428.33-23.05 431.05-26.7 435.7-26.7L435.7-26.7ZM465.35-14.05Q465.35-12.95 465.25-11.95L465.25-11.95 449.5-11.95Q449.7-6.7 451.65-4.28 453.6-1.85 456.8-1.85L456.8-1.85Q458.65-1.85 460.07-2.45 461.5-3.05 463.05-4.35L463.05-4.35 464.45-2.6Q462.7-1.05 460.82-0.25 458.95 0.55 456.7 0.55L456.7 0.55Q452 0.55 449.3-2.95 446.6-6.45 446.6-12.85L446.6-12.85Q446.6-19.35 449.17-23.03 451.75-26.7 456.2-26.7L456.2-26.7Q460.65-26.7 463-23.4 465.35-20.1 465.35-14.05L465.35-14.05ZM462.6-14.15L462.6-14.95Q462.6-19.5 461-21.93 459.4-24.35 456.2-24.35L456.2-24.35Q453.3-24.35 451.5-21.9 449.7-19.45 449.5-14.15L449.5-14.15 462.6-14.15ZM501.89-28.3L502.74-25.65Q501.59-25.25 500.07-25.1 498.54-24.95 496.24-24.9L496.24-24.9Q500.29-22.8 500.29-17.75L500.29-17.75Q500.29-13.8 497.99-11.48 495.69-9.15 491.69-9.15L491.69-9.15Q490.04-9.15 488.64-9.7L488.64-9.7Q486.84-8.45 486.84-6.65L486.84-6.65Q486.84-3.85 490.74-3.85L490.74-3.85 494.14-3.85Q497.79-3.85 499.89-2.02 501.99-0.2 501.99 2.75L501.99 2.75Q501.99 6.25 499.39 8.25 496.79 10.25 491.69 10.25L491.69 10.25Q486.44 10.25 484.14 8.43 481.84 6.6 481.84 2.75L481.84 2.75 484.39 2.75Q484.44 5.55 486.04 6.73 487.64 7.9 491.74 7.9L491.74 7.9Q499.19 7.9 499.19 2.9L499.19 2.9Q499.19 0.8 497.77-0.35 496.34-1.5 493.64-1.5L493.64-1.5 490.54-1.5Q487.44-1.5 485.84-2.75 484.24-4 484.24-6.05L484.24-6.05Q484.24-8.6 486.89-10.45L486.89-10.45Q484.84-11.6 483.87-13.43 482.89-15.25 482.89-17.85L482.89-17.85Q482.89-21.85 485.29-24.28 487.69-26.7 491.64-26.7L491.64-26.7Q495.89-26.65 497.87-27.03 499.84-27.4 501.89-28.3L501.89-28.3ZM491.64-24.5Q488.69-24.5 487.19-22.75 485.69-21 485.69-17.85L485.69-17.85Q485.69-14.75 487.29-12.98 488.89-11.2 491.59-11.2L491.59-11.2Q494.44-11.2 495.94-12.88 497.44-14.55 497.44-17.8L497.44-17.8Q497.44-20.95 495.97-22.73 494.49-24.5 491.64-24.5L491.64-24.5ZM524.54-26.15L524.54 0 522.14 0 521.94-4.5Q519.19 0.55 514.34 0.55L514.34 0.55Q511.19 0.55 509.39-1.45 507.59-3.45 507.59-7L507.59-7 507.59-26.15 510.39-26.15 510.39-7.25Q510.39-1.8 514.89-1.8L514.89-1.8Q517.09-1.8 518.74-3.2 520.39-4.6 521.74-7.15L521.74-7.15 521.74-26.15 524.54-26.15ZM548.79-5.35Q548.79-3.55 549.24-2.7 549.69-1.85 550.74-1.4L550.74-1.4 550.09 0.55Q548.44 0.15 547.54-0.83 546.64-1.8 546.34-3.7L546.34-3.7Q543.79 0.55 539.09 0.55L539.09 0.55Q535.69 0.55 533.71-1.58 531.74-3.7 531.74-7.25L531.74-7.25Q531.74-11.35 534.39-13.53 537.04-15.7 541.84-15.7L541.84-15.7 545.99-15.7 545.99-18.5Q545.99-21.5 544.74-22.93 543.49-24.35 540.74-24.35L540.74-24.35Q537.89-24.35 534.24-22.85L534.24-22.85 533.44-24.95Q537.59-26.7 541.04-26.7L541.04-26.7Q544.99-26.7 546.89-24.65 548.79-22.6 548.79-18.7L548.79-18.7 548.79-5.35ZM539.54-1.7Q543.79-1.7 545.99-6.5L545.99-6.5 545.99-13.65 542.19-13.65Q534.69-13.65 534.69-7.35L534.69-7.35Q534.69-4.6 535.96-3.15 537.24-1.7 539.54-1.7L539.54-1.7ZM567.48-26.7Q568.58-26.7 569.78-26.4L569.78-26.4 569.23-23.75Q568.33-24.05 567.23-24.05L567.23-24.05Q564.83-24.05 563.36-22.13 561.88-20.2 560.93-16.15L560.93-16.15 560.93 0 558.13 0 558.13-26.15 560.53-26.15 560.73-20.55Q561.73-23.65 563.38-25.18 565.03-26.7 567.48-26.7L567.48-26.7ZM589.88-5.35Q589.88-3.55 590.33-2.7 590.78-1.85 591.83-1.4L591.83-1.4 591.18 0.55Q589.53 0.15 588.63-0.83 587.73-1.8 587.43-3.7L587.43-3.7Q584.88 0.55 580.18 0.55L580.18 0.55Q576.78 0.55 574.81-1.58 572.83-3.7 572.83-7.25L572.83-7.25Q572.83-11.35 575.48-13.53 578.13-15.7 582.93-15.7L582.93-15.7 587.08-15.7 587.08-18.5Q587.08-21.5 585.83-22.93 584.58-24.35 581.83-24.35L581.83-24.35Q578.98-24.35 575.33-22.85L575.33-22.85 574.53-24.95Q578.68-26.7 582.13-26.7L582.13-26.7Q586.08-26.7 587.98-24.65 589.88-22.6 589.88-18.7L589.88-18.7 589.88-5.35ZM580.63-1.7Q584.88-1.7 587.08-6.5L587.08-6.5 587.08-13.65 583.28-13.65Q575.78-13.65 575.78-7.35L575.78-7.35Q575.78-4.6 577.06-3.15 578.33-1.7 580.63-1.7L580.63-1.7ZM609.78-26.7Q612.93-26.7 614.65-24.65 616.38-22.6 616.38-18.95L616.38-18.95 616.38 0 613.58 0 613.58-18.55Q613.58-21.55 612.5-22.98 611.43-24.4 609.28-24.4L609.28-24.4Q607.13-24.4 605.38-22.95 603.63-21.5 602.03-18.85L602.03-18.85 602.03 0 599.23 0 599.23-26.15 601.63-26.15 601.93-21.6Q605.03-26.7 609.78-26.7L609.78-26.7ZM635.28-2.95L636.43-1.1Q634.13 0.55 631.43 0.55L631.43 0.55Q628.68 0.55 627.13-1.1 625.58-2.75 625.58-5.75L625.58-5.75 625.58-23.85 621.63-23.85 621.63-26.15 625.58-26.15 625.58-32.4 628.38-32.75 628.38-26.15 634.43-26.15 634.08-23.85 628.38-23.85 628.38-5.85Q628.38-1.85 631.73-1.85L631.73-1.85Q633.43-1.85 635.28-2.95L635.28-2.95ZM657.92-14.05Q657.92-12.95 657.82-11.95L657.82-11.95 642.07-11.95Q642.27-6.7 644.22-4.28 646.17-1.85 649.37-1.85L649.37-1.85Q651.22-1.85 652.65-2.45 654.07-3.05 655.62-4.35L655.62-4.35 657.02-2.6Q655.27-1.05 653.4-0.25 651.52 0.55 649.27 0.55L649.27 0.55Q644.57 0.55 641.87-2.95 639.17-6.45 639.17-12.85L639.17-12.85Q639.17-19.35 641.75-23.03 644.32-26.7 648.77-26.7L648.77-26.7Q653.22-26.7 655.57-23.4 657.92-20.1 657.92-14.05L657.92-14.05ZM655.17-14.15L655.17-14.95Q655.17-19.5 653.57-21.93 651.97-24.35 648.77-24.35L648.77-24.35Q645.87-24.35 644.07-21.9 642.27-19.45 642.07-14.15L642.07-14.15 655.17-14.15ZM682.12-14.05Q682.12-12.95 682.02-11.95L682.02-11.95 666.27-11.95Q666.47-6.7 668.42-4.28 670.37-1.85 673.57-1.85L673.57-1.85Q675.42-1.85 676.85-2.45 678.27-3.05 679.82-4.35L679.82-4.35 681.22-2.6Q679.47-1.05 677.6-0.25 675.72 0.55 673.47 0.55L673.47 0.55Q668.77 0.55 666.07-2.95 663.37-6.45 663.37-12.85L663.37-12.85Q663.37-19.35 665.95-23.03 668.52-26.7 672.97-26.7L672.97-26.7Q677.42-26.7 679.77-23.4 682.12-20.1 682.12-14.05L682.12-14.05ZM679.37-14.15L679.37-14.95Q679.37-19.5 677.77-21.93 676.17-24.35 672.97-24.35L672.97-24.35Q670.07-24.35 668.27-21.9 666.47-19.45 666.27-14.15L666.27-14.15 679.37-14.15ZM703.52-37.15L706.32-36.8 706.32 0 703.87 0 703.62-3.9Q702.47-1.85 700.74-0.65 699.02 0.55 696.62 0.55L696.62 0.55Q692.42 0.55 690.04-3.03 687.67-6.6 687.67-12.95L687.67-12.95Q687.67-17.05 688.82-20.18 689.97-23.3 692.07-25 694.17-26.7 696.97-26.7L696.97-26.7Q700.97-26.7 703.52-23.2L703.52-23.2 703.52-37.15ZM697.02-1.8Q699.17-1.8 700.72-3 702.27-4.2 703.52-6.6L703.52-6.6 703.52-20.35Q701.02-24.35 697.42-24.35L697.42-24.35Q694.27-24.35 692.44-21.43 690.62-18.5 690.67-13L690.67-13Q690.67-7.45 692.34-4.63 694.02-1.8 697.02-1.8L697.02-1.8Z" opacity="1" transform="matrix(1,0,0,1,0,0)" fill="#0718c4" class="undefined-text-1" data-fill-palette-color="secondary" id="text-1"></path></svg></g></svg></g></svg></g></svg></g><g transform="matrix(1,0,0,1,141.25976870305578,0)"><svg viewBox="0 0 113.00046259388839 113.00046259388839" height="113.00046259388839" width="113.00046259388839"><g><svg></svg></g><g id="icon-0"><svg viewBox="0 0 113.00046259388839 113.00046259388839" height="113.00046259388839" width="113.00046259388839"><g><path d="M0 56.5c0-31.204 25.296-56.5 56.5-56.5 31.204 0 56.5 25.296 56.5 56.5 0 31.204-25.296 56.5-56.5 56.5-31.204 0-56.5-25.296-56.5-56.5zM56.5 110.775c29.975 0 54.274-24.299 54.275-54.275 0-29.975-24.299-54.274-54.275-54.274-29.975 0-54.274 24.299-54.274 54.274 0 29.975 24.299 54.274 54.274 54.275z" data-fill-palette-color="accent" fill="#0718c4" stroke="transparent"></path><ellipse rx="55.93522898397475" ry="55.93522898397475" cx="56.50023129694419" cy="56.50023129694419" fill="#0718c4" stroke="transparent" stroke-width="0" fill-opacity="1" data-fill-palette-color="accent"></ellipse></g><g transform="matrix(1,0,0,1,22.35828122246322,42.4751135230463)"><svg viewBox="0 0 68.28390014896195 28.05023554779578" height="28.05023554779578" width="68.28390014896195"><g><svg xmlns="http://www.w3.org/2000/svg" xmlns:xlink="http://www.w3.org/1999/xlink" version="1.1" x="0" y="0" viewBox="0.6808499097824097 29.73984146118164 98.63860321044922 40.519596099853516" enable-background="new 0 0 100 100" xml:space="preserve" height="28.05023554779578" width="68.28390014896195" class="icon-x-0" data-fill-palette-color="quaternary" id="x-0"><g fill="#4b91f1" data-fill-palette-color="quaternary"><g fill="#4b91f1" data-fill-palette-color="quaternary"><circle cx="68.347" cy="40.058" r="3.1" fill="#4b91f1" data-fill-palette-color="quaternary"></circle><path d="M99.037 50.504l-4.45-2.614c-0.273-0.16-4.826-1.378-4.986-1.105l-0.168 0.287-7.587-4.456c0.17-0.434 0.197-0.918 0.009-1.378-0.419-1.024-1.587-1.482-2.609-1.064l-0.913 0.379-13.45-7.9 0.121-0.573c0.187-1.089-0.544-2.124-1.635-2.311-1.089-0.187-2.124 0.545-2.311 1.634l-1.442 6.873c-0.063 0.375-0.02 0.76 0.127 1.112l2.935 6.995-0.057 6.406h8.153v-4.976l9.877-3.981c0.301-0.123 0.559-0.315 0.771-0.543l7.608 4.469-0.241 0.41c-0.161 0.271 3.193 3.534 3.466 3.693l4.45 2.614c0.272 0.16 0.623 0.069 0.782-0.204l1.754-2.983C99.4 51.014 99.31 50.665 99.037 50.504zM69.188 44.351h-3.076l-2.455-5.914 1.052-4.968 12.707 7.464L69.188 44.351z" fill="#4b91f1" data-fill-palette-color="quaternary"></path></g><g fill="#4b91f1" data-fill-palette-color="quaternary"><circle cx="31.653" cy="40.058" r="3.1" fill="#4b91f1" data-fill-palette-color="quaternary"></circle><path d="M0.963 50.504l4.45-2.614c0.273-0.16 4.826-1.378 4.985-1.105l0.169 0.287 7.587-4.456c-0.171-0.434-0.197-0.918-0.01-1.378 0.418-1.024 1.586-1.482 2.609-1.064l0.913 0.379 13.452-7.9-0.122-0.573c-0.187-1.089 0.544-2.124 1.634-2.311 1.09-0.187 2.124 0.545 2.31 1.634l1.443 6.873c0.064 0.375 0.02 0.76-0.127 1.112l-2.934 6.995 0.055 6.406h-8.153v-4.976l-9.877-3.981c-0.301-0.123-0.559-0.315-0.771-0.543l-7.608 4.469 0.241 0.41c0.16 0.271-3.194 3.534-3.466 3.693l-4.451 2.614c-0.272 0.16-0.622 0.069-0.782-0.204L0.76 51.286C0.6 51.014 0.69 50.665 0.963 50.504zM30.813 44.351h3.076l2.455-5.914-1.051-4.968-12.707 7.464L30.813 44.351z" fill="#4b91f1" data-fill-palette-color="quaternary"></path></g><circle cx="51.282" cy="40.333" r="3.3" fill="#4b91f1" data-fill-palette-color="quaternary"></circle><g fill="#4b91f1" data-fill-palette-color="quaternary"><path d="M81.615 51.879c-1.897 0-3.627 0.121-4.956 2.121H61.2l-0.108 0.822 11.75 6.793c0.136-0.047 0.295-0.131 0.486-0.131 0.971 0 4.874 0.989 5.333 1.26l4.45 2.601c0.521 0.306 0.797 0.856 0.778 1.423 0.474-0.299 0.913-0.654 1.301-1.071 2.379-1.276 3.997-3.512 3.997-6.4C89.188 55.114 85.797 51.879 81.615 51.879z" fill="#4b91f1" data-fill-palette-color="quaternary"></path><path d="M71.354 64.242l-0.077-0.331-11.759-6.92c-0.226 0.086-0.458 0.13-0.699 0.142-0.097 0.007-0.144 0.006-0.199 0.006l-0.13-0.01c-0.637-0.066-1.164-0.367-1.561-0.847-0.256-0.309-0.275-0.671-0.348-1.055L54 53.647V54h-8.175c-0.55 0-0.814 0-0.956 0H26.62c-1.329-2-3.059-2.121-4.956-2.121-4.182 0-7.572 3.258-7.572 7.439 0 2.888 1.618 5.22 3.997 6.496C19.436 67.265 21.354 68 23.49 68h51.159C73.577 67 71.547 64.984 71.354 64.242z" fill="#4b91f1" data-fill-palette-color="quaternary"></path></g><path d="M82.594 66.212l-4.45-2.613c-0.273-0.161-4.827-1.378-4.986-1.105l-0.169 0.287L59.98 55.14c0.025-0.081 0.043-0.165 0.053-0.253l0.683-6.487c0.063-0.587-0.266-1.146-0.809-1.38l-6.578-2.817c-0.377-0.162-0.785-0.139-1.126 0.03l-4.596-0.036-2.168-13.361c-0.113-0.703-0.776-1.179-1.479-1.066-0.704 0.114-1.18 0.776-1.067 1.479L45.32 46.21c0.005 0.03 0.011 0.061 0.02 0.091-0.047 1.701-0.028 4.157 0.316 5.868C45.708 52.424 45.765 53 45.825 53h7.733c-0.052 0-0.102-0.509-0.147-0.723l3.95 2.281-0.009 0.064c-0.078 0.742 0.458 1.395 1.198 1.473 0.069 0.007 0.141 0.004 0.21 0.002 0.288-0.015 0.554-0.129 0.77-0.301l13.056 7.668-0.241 0.411c-0.16 0.271 3.193 3.532 3.466 3.692l4.451 2.614c0.271 0.159 0.623 0.069 0.782-0.204l1.753-2.983C82.957 66.722 82.865 66.372 82.594 66.212zM53.216 51.166c-0.057-0.344-0.101-0.673-0.119-0.964-0.062-0.966-0.024-2.117 0.041-3.149l4.793 2.055-0.479 4.547L53.216 51.166z" fill="#4b91f1" data-fill-palette-color="quaternary"></path></g></svg></g></svg></g></svg></g></svg></g><g></g></svg></g></svg><rect width="395.5199999999999" height="170.41704160970949" fill="none" stroke="none" visibility="hidden"></rect></g></svg></g></svg>